<svg width="25" height="25" viewBox="0 0 25 25" fill="none" xmlns="http://www.w3.org/2000/svg">
<g clip-path="url(#clip0_0_1409)">
<path d="M9.875 20.75C9.875 21.1208 9.76503 21.4834 9.559 21.7917C9.35298 22.1 9.06014 22.3404 8.71753 22.4823C8.37492 22.6242 7.99792 22.6613 7.6342 22.589C7.27049 22.5166 6.9364 22.3381 6.67417 22.0758C6.41195 21.8136 6.23337 21.4795 6.16103 21.1158C6.08868 20.7521 6.12581 20.3751 6.26773 20.0325C6.40964 19.6899 6.64996 19.397 6.95831 19.191C7.26665 18.985 7.62916 18.875 8 18.875C8.49728 18.875 8.97419 19.0725 9.32582 19.4242C9.67746 19.7758 9.875 20.2527 9.875 20.75ZM17.75 18.875C17.3792 18.875 17.0166 18.985 16.7083 19.191C16.4 19.397 16.1596 19.6899 16.0177 20.0325C15.8758 20.3751 15.8387 20.7521 15.911 21.1158C15.9834 21.4795 16.162 21.8136 16.4242 22.0758C16.6864 22.3381 17.0205 22.5166 17.3842 22.589C17.7479 22.6613 18.1249 22.6242 18.4675 22.4823C18.8101 22.3404 19.103 22.1 19.309 21.7917C19.515 21.4834 19.625 21.1208 19.625 20.75C19.625 20.2527 19.4275 19.7758 19.0758 19.4242C18.7242 19.0725 18.2473 18.875 17.75 18.875ZM22.5753 7.58094L20.0169 15.8966C19.8535 16.4343 19.5211 16.9051 19.069 17.239C18.6169 17.5729 18.0692 17.7521 17.5072 17.75H8.27469C7.7046 17.7482 7.15046 17.5616 6.6953 17.2183C6.24015 16.8751 5.90848 16.3936 5.75 15.8459L2.54469 4.625H1.625C1.32663 4.625 1.04048 4.50647 0.829505 4.2955C0.618526 4.08452 0.5 3.79837 0.5 3.5C0.5 3.20163 0.618526 2.91548 0.829505 2.7045C1.04048 2.49353 1.32663 2.375 1.625 2.375H2.82687C3.23407 2.37626 3.62988 2.50951 3.95493 2.75478C4.27998 3.00004 4.51674 3.34409 4.62969 3.73531L5.31312 6.125H21.5C21.6761 6.12499 21.8497 6.1663 22.0069 6.24561C22.164 6.32492 22.3004 6.44001 22.405 6.58164C22.5096 6.72326 22.5795 6.88746 22.6091 7.06102C22.6387 7.23458 22.6271 7.41266 22.5753 7.58094ZM19.9766 8.375H5.95531L7.91375 15.2281C7.93617 15.3065 7.98354 15.3755 8.04867 15.4245C8.1138 15.4736 8.19315 15.5001 8.27469 15.5H17.5072C17.5875 15.5002 17.6656 15.4746 17.7303 15.427C17.7949 15.3794 17.8426 15.3123 17.8662 15.2356L19.9766 8.375Z" fill="black"/>
</g>
<defs>
<clipPath id="clip0_0_1409">
<rect width="24" height="24" fill="white" transform="translate(0.5 0.5)"/>
</clipPath>
</defs>
</svg>
