<svg width="18" height="18" viewBox="0 0 18 18" fill="none" xmlns="http://www.w3.org/2000/svg">
<path d="M14.6594 13.4655C14.8179 13.6241 14.907 13.839 14.907 14.0632C14.907 14.2874 14.8179 14.5023 14.6594 14.6609C14.5009 14.8194 14.2859 14.9084 14.0618 14.9084C13.8376 14.9084 13.6226 14.8194 13.4641 14.6609L8.99997 10.1953L4.53442 14.6595C4.37591 14.818 4.16093 14.907 3.93677 14.907C3.7126 14.907 3.49762 14.818 3.33911 14.6595C3.1806 14.5009 3.09155 14.286 3.09155 14.0618C3.09155 13.8376 3.1806 13.6226 3.33911 13.4641L7.80466 9L3.34052 4.53445C3.18201 4.37594 3.09296 4.16096 3.09296 3.9368C3.09296 3.71263 3.18201 3.49765 3.34052 3.33914C3.49902 3.18063 3.71401 3.09158 3.93817 3.09158C4.16234 3.09158 4.37732 3.18063 4.53583 3.33914L8.99997 7.80469L13.4655 3.33844C13.624 3.17993 13.839 3.09088 14.0632 3.09088C14.2873 3.09088 14.5023 3.17993 14.6608 3.33844C14.8193 3.49695 14.9084 3.71193 14.9084 3.93609C14.9084 4.16026 14.8193 4.37524 14.6608 4.53375L10.1953 9L14.6594 13.4655Z" fill="white"/>
</svg>
