<svg width="24" height="25" viewBox="0 0 24 25" fill="none" xmlns="http://www.w3.org/2000/svg">
<path d="M20.9796 20.0204L16.8984 15.9375C18.1221 14.3429 18.6934 12.3426 18.4964 10.3422C18.2995 8.34191 17.349 6.4914 15.8378 5.16608C14.3267 3.84077 12.368 3.13991 10.359 3.20565C8.35011 3.2714 6.44141 4.09884 5.02013 5.52012C3.59884 6.94141 2.7714 8.8501 2.70566 10.859C2.63991 12.8679 3.34078 14.8267 4.66609 16.3378C5.9914 17.849 7.84191 18.7995 9.84224 18.9964C11.8426 19.1934 13.8429 18.6221 15.4375 17.3984L19.5221 21.4839C19.618 21.5798 19.7319 21.6559 19.8573 21.7078C19.9826 21.7598 20.1169 21.7865 20.2526 21.7865C20.3882 21.7865 20.5226 21.7598 20.6479 21.7078C20.7732 21.6559 20.8871 21.5798 20.9831 21.4839C21.079 21.388 21.1551 21.2741 21.207 21.1488C21.2589 21.0234 21.2856 20.8891 21.2856 20.7534C21.2856 20.6178 21.2589 20.4834 21.207 20.3581C21.1551 20.2328 21.079 20.1189 20.9831 20.023L20.9796 20.0204ZM4.78125 11.125C4.78125 9.96922 5.12398 8.83939 5.7661 7.87839C6.40822 6.91739 7.32089 6.16838 8.3887 5.72608C9.4565 5.28378 10.6315 5.16805 11.7651 5.39354C12.8986 5.61902 13.9399 6.17558 14.7572 6.99285C15.5744 7.81011 16.131 8.85136 16.3565 9.98494C16.582 11.1185 16.4662 12.2935 16.0239 13.3613C15.5816 14.4291 14.8326 15.3418 13.8716 15.9839C12.9106 16.626 11.7808 16.9687 10.625 16.9687C9.07563 16.9672 7.59018 16.351 6.49461 15.2554C5.39904 14.1598 4.78285 12.6744 4.78125 11.125Z" fill="black"/>
</svg>
